<?xml version="1.0" standalone="no"?>
<!DOCTYPE svg PUBLIC "-//W3C//DTD SVG 20010904//EN"
 "http://www.w3.org/TR/2001/REC-SVG-20010904/DTD/svg10.dtd">
<svg version="1.0" xmlns="http://www.w3.org/2000/svg"
 width="1387.000000pt" height="1387.000000pt" viewBox="0 0 1387.000000 1387.000000"
 preserveAspectRatio="xMidYMid meet">
<metadata>
Created by potrace 1.14, written by Peter Selinger 2001-2017
</metadata>
<g transform="translate(0.000000,1387.000000) scale(0.100000,-0.100000)"
fill="#000000" stroke="none">
<path d="M9700 13507 c-3 -3 -18 -7 -35 -10 -150 -27 -435 -207 -710 -450 -90
-80 -347 -335 -415 -413 -89 -101 -145 -167 -159 -188 -8 -12 -18 -23 -21 -26
-4 -3 -30 -35 -58 -72 l-52 -68 36 -15 c20 -8 40 -15 45 -15 5 0 72 -25 149
-54 416 -163 773 -385 1084 -676 106 -98 149 -144 277 -290 51 -59 150 -194
227 -309 45 -69 82 -122 82 -119 0 3 5 29 10 59 6 29 13 72 15 94 3 22 7 47
10 55 2 8 6 35 9 60 23 191 36 305 41 365 4 39 8 81 10 94 16 96 22 556 11
782 -7 150 -9 175 -27 314 -19 153 -23 177 -64 367 -22 102 -82 275 -126 361
-27 52 -83 105 -138 129 -41 19 -189 37 -201 25z"/>
<path d="M4000 13409 c-144 -22 -210 -99 -299 -353 -32 -91 -85 -290 -95 -361
-4 -22 -8 -47 -11 -55 -10 -36 -32 -210 -41 -315 -4 -49 -8 -106 -10 -125 -4
-51 -4 -476 1 -535 2 -27 6 -90 10 -140 3 -49 8 -99 10 -110 3 -11 7 -45 10
-75 9 -94 16 -140 41 -285 38 -223 60 -331 71 -348 3 -5 18 11 32 38 14 26 31
55 36 64 14 24 148 224 157 236 191 242 256 315 392 445 44 41 90 85 102 96
51 49 236 191 329 254 247 165 538 313 779 394 12 4 15 10 9 19 -30 40 -118
153 -123 157 -3 3 -41 48 -85 100 -118 142 -423 442 -565 555 -331 266 -564
372 -750 344z"/>
<path d="M6718 12105 c-2 -2 -46 -6 -98 -9 -99 -6 -131 -10 -265 -27 -833
-107 -1568 -506 -2061 -1119 -344 -429 -589 -985 -689 -1565 -2 -16 -7 -39 -9
-50 -2 -11 -7 -45 -11 -75 -4 -30 -9 -62 -10 -71 -5 -23 -14 -114 -20 -194
l-5 -70 126 -60 c70 -33 146 -77 169 -97 96 -85 116 -244 43 -352 -22 -32 -93
-96 -107 -96 -3 0 -12 -4 -20 -9 -10 -7 -4 -18 27 -49 45 -45 82 -132 82 -192
0 -25 5 -40 13 -40 13 0 298 -35 357 -44 35 -5 269 -34 345 -42 22 -2 54 -6
70 -9 17 -3 48 -7 70 -10 54 -6 931 -115 975 -121 19 -2 49 -6 65 -9 17 -2 57
-7 90 -10 33 -3 71 -8 85 -11 14 -2 45 -6 70 -9 25 -3 81 -10 125 -16 121 -15
143 -18 237 -29 47 -6 106 -13 130 -16 24 -2 52 -7 63 -9 11 -2 52 -7 91 -10
l71 -7 16 59 c10 33 17 66 17 74 0 8 -25 27 -56 43 -176 92 -333 282 -334 405
-1 135 121 245 335 302 117 32 383 32 504 1 200 -52 309 -149 315 -280 6 -124
-115 -291 -296 -409 -36 -23 -71 -43 -76 -43 -26 0 -32 -28 -16 -85 8 -33 17
-61 19 -63 2 -2 61 3 132 12 70 9 148 19 173 22 25 3 56 7 70 9 14 3 48 7 75
10 28 3 66 8 85 10 19 3 55 7 80 10 25 3 77 10 115 15 39 5 95 12 125 15 30 3
69 8 85 10 28 4 156 20 235 30 19 2 53 7 75 9 22 3 96 12 165 21 69 9 141 18
160 20 19 3 91 12 160 20 69 9 139 17 155 20 17 2 197 24 400 50 204 25 381
47 395 49 14 3 32 5 41 5 13 1 17 12 17 54 0 98 66 203 152 242 l38 17 -41 37
c-60 54 -97 139 -93 215 3 76 32 143 80 187 36 32 156 103 244 144 l43 20 -6
90 c-11 162 -37 346 -75 532 -94 453 -265 864 -511 1223 -146 214 -363 451
-544 595 -27 22 -59 48 -70 58 -11 11 -83 61 -160 112 -275 183 -544 309 -868
405 -56 17 -111 32 -122 34 -11 3 -69 16 -130 29 -60 14 -128 28 -150 31 -188
30 -266 40 -405 52 -64 6 -557 13 -562 9z m2022 -2260 c213 -74 331 -255 334
-515 1 -172 -25 -288 -94 -418 -96 -180 -300 -286 -484 -251 -153 29 -294 166
-357 346 -42 121 -55 263 -34 392 28 183 154 365 296 430 35 16 75 31 89 34
45 10 204 -2 250 -18z m-3345 -72 c174 -51 281 -196 326 -443 17 -93 14 -272
-5 -354 -53 -226 -218 -372 -429 -381 -240 -10 -417 171 -482 490 -4 17 -8 77
-10 135 -12 290 117 501 340 556 66 17 197 15 260 -3z"/>
<path d="M11216 9139 c-125 -30 -257 -78 -461 -169 -155 -68 -581 -283 -607
-307 -68 -60 -33 -182 56 -199 39 -7 51 -2 291 123 83 43 186 95 230 115 44
20 114 52 156 71 108 50 322 127 398 143 79 16 112 39 130 90 12 34 11 44 -2
76 -29 70 -76 84 -191 57z"/>
<path d="M2524 9090 c-55 -22 -81 -102 -51 -159 21 -41 58 -59 194 -95 198
-53 379 -114 519 -176 27 -12 65 -28 84 -37 77 -33 120 -53 243 -112 71 -33
138 -61 150 -61 30 0 83 34 98 62 16 29 13 93 -5 121 -14 20 -63 48 -225 126
-218 106 -484 209 -686 267 -71 20 -158 45 -192 55 -67 20 -96 23 -129 9z"/>
<path d="M11088 8305 c-2 -1 -50 -5 -108 -9 -58 -4 -118 -8 -135 -10 -95 -10
-178 -20 -270 -32 -143 -19 -451 -76 -464 -87 -31 -24 -37 -32 -47 -62 -16
-47 -7 -67 24 -61 15 3 50 8 77 11 28 3 61 8 75 10 14 2 52 6 85 10 33 3 71 8
85 10 14 2 84 11 155 20 72 9 144 18 160 20 151 22 301 36 355 34 77 -3 181
-28 247 -60 54 -26 100 -28 135 -5 72 47 66 160 -11 198 -27 13 -63 16 -196
16 -90 0 -165 -1 -167 -3z"/>
<path d="M2747 8264 c-1 -1 -51 -4 -112 -8 -60 -3 -119 -8 -130 -10 -11 -2
-42 -7 -69 -10 -89 -12 -190 -36 -226 -54 -62 -30 -82 -113 -41 -170 46 -65
151 -57 251 19 64 49 152 91 235 113 94 24 251 15 635 -39 19 -2 91 -12 160
-20 69 -8 134 -17 146 -19 11 -2 41 -6 65 -7 44 -3 44 -3 42 30 -1 33 -23 65
-56 82 -28 16 -219 49 -422 74 -99 12 -468 27 -478 19z"/>
<path d="M2715 7788 c-43 -16 -88 -48 -117 -83 -28 -34 -737 -1449 -763 -1523
-9 -26 -19 -85 -22 -132 -13 -206 96 -403 278 -500 46 -24 311 -107 569 -177
30 -8 125 -35 210 -59 85 -25 454 -130 820 -235 366 -104 685 -196 710 -203
147 -45 520 -149 574 -161 176 -36 380 31 497 164 23 25 359 576 747 1224 389
647 709 1177 712 1177 4 -1 224 -362 290 -477 14 -24 272 -456 575 -961 493
-822 557 -924 616 -983 125 -125 297 -177 474 -145 26 5 396 110 1075 305 306
88 1226 350 1480 422 135 38 277 84 315 103 76 36 166 116 212 189 70 111 99
285 69 407 -23 90 -745 1537 -789 1581 -18 17 -56 43 -86 57 -49 23 -61 24
-145 18 -50 -3 -102 -8 -115 -11 -13 -2 -49 -7 -80 -10 -31 -4 -63 -8 -71 -10
-8 -2 -46 -7 -85 -10 -38 -4 -77 -8 -85 -10 -8 -2 -40 -7 -70 -10 -57 -7 -582
-72 -635 -79 -16 -3 -57 -7 -90 -11 -33 -4 -71 -9 -85 -11 -14 -2 -49 -7 -79
-10 -30 -3 -62 -7 -70 -9 -9 -1 -45 -6 -81 -10 -36 -3 -76 -8 -90 -10 -42 -6
-102 -14 -160 -20 -30 -3 -82 -10 -115 -15 -33 -5 -87 -12 -121 -15 -33 -3
-71 -8 -85 -10 -13 -2 -136 -18 -274 -35 -137 -17 -261 -33 -275 -35 -14 -2
-50 -6 -80 -10 -30 -3 -66 -8 -80 -10 -14 -2 -50 -7 -80 -10 -30 -3 -122 -15
-205 -25 -82 -11 -170 -22 -195 -24 -25 -3 -61 -7 -80 -10 -19 -3 -185 -24
-368 -47 l-333 -41 -252 31 c-139 18 -270 34 -292 37 -22 2 -94 12 -160 20
-66 9 -136 17 -155 20 -19 2 -73 9 -120 15 -47 6 -101 12 -120 15 -60 7 -283
34 -320 39 -19 2 -91 11 -160 20 -69 9 -141 18 -160 20 -68 8 -284 36 -314 40
-43 5 -112 14 -171 20 -27 3 -61 8 -75 10 -14 3 -45 7 -70 10 -50 6 -594 73
-650 80 -19 2 -91 11 -160 20 -69 9 -141 18 -160 20 -19 2 -91 12 -160 20 -69
9 -138 18 -155 20 -16 2 -91 11 -165 20 -74 9 -146 18 -160 21 -65 11 -207 13
-235 2z"/>
<path d="M6893 6185 c-9 -19 -20 -35 -24 -35 -4 0 -9 -8 -13 -17 -3 -10 -10
-25 -16 -33 -5 -8 -88 -145 -183 -305 -522 -874 -674 -1126 -713 -1180 -64
-89 -118 -145 -230 -235 -36 -29 -140 -89 -207 -119 -57 -26 -92 -38 -162 -57
-119 -33 -309 -41 -435 -20 -61 10 -2047 570 -2242 632 -18 5 -18 -29 -16
-1468 3 -1402 4 -1476 21 -1528 98 -290 292 -487 557 -563 64 -19 1320 -334
1400 -352 8 -2 78 -19 155 -39 340 -85 751 -188 765 -191 8 -2 89 -22 180 -45
91 -23 172 -43 180 -45 8 -2 152 -38 320 -80 168 -42 312 -78 320 -80 8 -2 43
-10 77 -19 113 -30 167 -38 268 -41 128 -4 209 7 375 50 36 9 72 18 80 20 8 2
116 29 240 60 124 31 232 58 240 60 8 2 62 15 120 30 58 15 112 28 120 30 8 2
62 15 120 30 58 15 112 28 120 30 8 2 80 20 160 40 80 20 152 38 160 40 8 2
152 38 320 80 168 42 312 78 320 80 8 2 143 36 300 75 157 39 292 73 300 75 8
1 35 8 60 15 25 7 52 13 60 15 95 18 675 171 720 189 223 91 394 279 468 516
l27 85 3 1469 c2 1213 0 1467 -11 1463 -7 -3 -260 -75 -562 -161 -303 -87
-563 -162 -580 -167 -27 -9 -330 -95 -365 -104 -8 -2 -159 -45 -335 -95 -399
-114 -450 -124 -620 -116 -162 7 -280 37 -423 107 -196 97 -367 259 -468 444
-18 33 -704 1176 -739 1230 -17 28 -60 98 -95 158 -71 119 -89 130 -117 72z"/>
</g>
</svg>
